<svg version="1.1" viewBox="0.0 0.0 288.3254593175853 267.254593175853" fill="none" stroke="none" stroke-linecap="square" stroke-miterlimit="10" xmlns:xlink="http://www.w3.org/1999/xlink" xmlns="http://www.w3.org/2000/svg"><clipPath id="p.0"><path d="m0 0l288.32547 0l0 267.2546l-288.32547 0l0 -267.2546z" clip-rule="nonzero"/></clipPath><g clip-path="url(#p.0)"><path fill="#000000" fill-opacity="0.0" d="m0 0l288.32547 0l0 267.2546l-288.32547 0z" fill-rule="evenodd"/><path fill="#000000" fill-opacity="0.0" d="m276.3726 190.83934l0 0c0 -5.6185303 -4.554718 -10.173233 -10.173248 -10.173233l0 0c-2.6980896 0 -5.2857056 1.0718231 -7.1935425 2.9796753c-1.9078674 1.9078369 -2.9796753 4.4954376 -2.9796753 7.1935577l0 0c0 5.618515 4.554718 10.173218 10.173218 10.173218l0 0c5.6185303 0 10.173248 -4.5547028 10.173248 -10.173218z" fill-rule="evenodd"/><path fill="#39a2c6" d="m41.493412 174.04803l0 -86.3937l0 0c0 -47.713924 45.970135 -86.3937 102.67717 -86.3937c56.70703 0 102.67717 38.679775 102.67717 86.3937l0 86.3937z" fill-rule="evenodd"/><path fill="#cfe2f3" d="m116.95854 179.3615l0 0c0 -15.168259 12.29631 -27.464554 27.46457 -27.464554l0 0c7.2840576 0 14.269775 2.89357 19.42038 8.044174c5.1506042 5.1506042 8.044189 12.136337 8.044189 19.42038l0 0c0 15.168274 -12.29631 27.46457 -27.46457 27.46457l0 0c-15.168259 0 -27.46457 -12.296295 -27.46457 -27.46457z" fill-rule="evenodd"/><path fill="#000000" fill-opacity="0.0" d="m266.19934 180.6661c0 -26.884613 -30.440933 -50.174744 -60.88188 -53.769234c-30.440948 -3.5944824 -60.88188 12.50666 -60.88188 25.013329" fill-rule="evenodd"/><path stroke="#39a2c6" stroke-width="24.0" stroke-linejoin="round" stroke-linecap="butt" d="m266.19934 180.6661c0 -26.884613 -30.440933 -50.174744 -60.88188 -53.769234c-30.440948 -3.5944824 -60.88188 12.50666 -60.88188 25.013329" fill-rule="evenodd"/><path fill="#000000" fill-opacity="0.0" d="m21.336964 180.66484c0 -26.883896 30.771656 -50.17331 61.54331 -53.7678c30.771652 -3.59449 61.543312 12.505943 61.543312 25.011894" fill-rule="evenodd"/><path stroke="#39a2c6" stroke-width="24.0" stroke-linejoin="round" stroke-linecap="butt" d="m21.336964 180.66484c0 -26.883896 30.771656 -50.17331 61.54331 -53.7678c30.771652 -3.59449 61.543312 12.505943 61.543312 25.011894" fill-rule="evenodd"/><path fill="#39a2c6" d="m169.97626 194.7944l49.66928 0l0 54.92914l-49.66928 0z" fill-rule="evenodd"/><path fill="#39a2c6" d="m66.54318 194.79448l49.66929 0l0 54.929123l-49.66929 0z" fill-rule="evenodd"/><path fill="#39a2c6" d="m41.493313 129.59587l0 0c0 -11.193771 9.074348 -20.26812 20.268124 -20.26812l165.32202 0c5.3754272 0 10.530716 2.1353912 14.331726 5.9364014c3.8010101 3.8010101 5.936386 8.956284 5.936386 14.331718l0 81.07005c0 11.193787 -9.074341 20.268127 -20.268112 20.268127l-165.32202 0c-11.193775 0 -20.268124 -9.074341 -20.268124 -20.268127z" fill-rule="evenodd"/><path fill="#434343" d="m167.06287 259.66876l0 -15.023621l0 0c0 -8.297302 12.352707 -15.023621 27.590546 -15.023621c15.237854 0 27.59056 6.7263184 27.59056 15.023621l0 15.023621z" fill-rule="evenodd"/><path stroke="#434343" stroke-width="12.0" stroke-linejoin="round" stroke-linecap="butt" d="m167.06287 259.66876l0 -15.023621l0 0c0 -8.297302 12.352707 -15.023621 27.590546 -15.023621c15.237854 0 27.59056 6.7263184 27.59056 15.023621l0 15.023621z" fill-rule="evenodd"/><path fill="#434343" d="m1.890631 175.54117l0 0c0 -15.168259 12.296306 -27.46457 27.464567 -27.46457l0 0c7.2840576 0 14.269775 2.8935852 19.42038 8.044189c5.150608 5.1506042 8.044186 12.136322 8.044186 19.42038l0 0c0 15.168259 -12.296303 27.46457 -27.464565 27.46457l0 0c-15.168262 0 -27.464567 -12.29631 -27.464567 -27.46457z" fill-rule="evenodd"/><path fill="#000000" fill-opacity="0.0" d="m11.163736 190.83806l0 0c0 -5.618515 4.5547094 -10.173218 10.173227 -10.173218l0 0c2.6981087 0 5.2857094 1.0718079 7.1935596 2.97966c1.9078503 1.9078522 2.9796696 4.495453 2.9796696 7.1935577l0 0c0 5.6185303 -4.5547104 10.173233 -10.173229 10.173233l0 0c-5.618518 0 -10.173227 -4.5547028 -10.173227 -10.173233z" fill-rule="evenodd"/><path fill="#434343" d="m286.4503 175.54016l0 0c0 -15.168259 -12.296326 -27.46457 -27.46457 -27.46457l0 0c-7.2840576 0 -14.269775 2.8935852 -19.42038 8.044189c-5.1506042 5.1506042 -8.044189 12.136322 -8.044189 19.42038l0 0c0 15.168259 12.29631 27.46457 27.46457 27.46457l0 0c15.168243 0 27.46457 -12.29631 27.46457 -27.46457z" fill-rule="evenodd"/><path fill="#000000" fill-opacity="0.0" d="m187.47964 105.22924l39.96849 0l0 31.999992l-39.96849 0z" fill-rule="evenodd"/><path fill="#ffffff" d="m146.86958 67.94254l0 0c0 -22.856762 18.529068 -41.385826 41.38582 -41.385826l0 0c10.976212 0 21.502853 4.360279 29.264206 12.121628c7.7613373 7.7613487 12.121628 18.287994 12.121628 29.264198l0 0c0 22.856758 -18.529068 41.385826 -41.385834 41.385826l0 0c-22.85675 0 -41.38582 -18.529068 -41.38582 -41.385826z" fill-rule="evenodd"/><path fill="#434343" d="m161.58528 67.94959l0 0c0 -14.733395 11.943771 -26.67717 26.67717 -26.67717l0 0c7.075226 0 13.860672 2.8106232 18.863602 7.8135605c5.002945 5.002941 7.813568 11.7883835 7.813568 18.86361l0 0c0 14.733391 -11.943771 26.677162 -26.67717 26.677162l0 0c-14.733398 0 -26.67717 -11.943771 -26.67717 -26.677162z" fill-rule="evenodd"/><path fill="#434343" d="m171.28123 67.92901l0 0c0 -9.3671 7.5935364 -16.960632 16.960632 -16.960632l0 0c4.4982452 0 8.812241 1.7869186 11.992981 4.967655c3.180725 3.1807327 4.9676514 7.4947357 4.9676514 11.992977l0 0c0 9.367096 -7.5935364 16.960632 -16.960632 16.960632l0 0c-9.367096 0 -16.960632 -7.5935364 -16.960632 -16.960632z" fill-rule="evenodd"/><path fill="#ffffff" d="m190.30127 53.161674l0 0c0 -5.6967964 4.618164 -10.3149605 10.314957 -10.3149605l0 0c2.7357025 0 5.3593597 1.08675 7.2937775 3.021183c1.934433 1.9344292 3.0211945 4.558079 3.0211945 7.2937775l0 0c0 5.6967964 -4.6181793 10.3149605 -10.314972 10.3149605l0 0c-5.6967926 0 -10.314957 -4.618164 -10.314957 -10.3149605z" fill-rule="evenodd"/><path fill="#ffffff" d="m59.750286 67.94254l0 0c0 -22.856762 18.529064 -41.385826 41.385822 -41.385826l0 0c10.976204 0 21.502853 4.360279 29.264206 12.121628c7.7613373 7.7613487 12.121628 18.287994 12.121628 29.264198l0 0c0 22.856758 -18.529068 41.385826 -41.385834 41.385826l0 0c-22.856758 0 -41.385822 -18.529068 -41.385822 -41.385826z" fill-rule="evenodd"/><path fill="#434343" d="m74.46599 67.94959l0 0c0 -14.733395 11.943779 -26.67717 26.67717 -26.67717l0 0c7.075226 0 13.860664 2.8106232 18.863602 7.8135605c5.0029373 5.002941 7.8135605 11.7883835 7.8135605 18.86361l0 0c0 14.733391 -11.943771 26.677162 -26.677162 26.677162l0 0c-14.733391 0 -26.67717 -11.943771 -26.67717 -26.677162z" fill-rule="evenodd"/><path fill="#434343" d="m84.16194 67.92901l0 0c0 -9.3671 7.5935364 -16.960632 16.960632 -16.960632l0 0c4.4982376 0 8.812241 1.7869186 11.992981 4.967655c3.1807327 3.1807327 4.9676514 7.4947357 4.9676514 11.992977l0 0c0 9.367096 -7.5935364 16.960632 -16.960632 16.960632l0 0c-9.367096 0 -16.960632 -7.5935364 -16.960632 -16.960632z" fill-rule="evenodd"/><path fill="#ffffff" d="m103.18198 53.161674l0 0c0 -5.6967964 4.618164 -10.3149605 10.314957 -10.3149605l0 0c2.7357025 0 5.359352 1.08675 7.293785 3.021183c1.9344254 1.9344292 3.0211792 4.558079 3.0211792 7.2937775l0 0c0 5.6967964 -4.618164 10.3149605 -10.314964 10.3149605l0 0c-5.6967926 0 -10.314957 -4.618164 -10.314957 -10.3149605z" fill-rule="evenodd"/><path fill="#434343" d="m63.787277 259.66876l0 -15.023621l0 0c0 -8.297302 12.352715 -15.023621 27.590553 -15.023621c15.237839 0 27.590546 6.7263184 27.590546 15.023621l0 15.023621z" fill-rule="evenodd"/><path stroke="#434343" stroke-width="12.0" stroke-linejoin="round" stroke-linecap="butt" d="m63.787277 259.66876l0 -15.023621l0 0c0 -8.297302 12.352715 -15.023621 27.590553 -15.023621c15.237839 0 27.590546 6.7263184 27.590546 15.023621l0 15.023621z" fill-rule="evenodd"/><path fill="#434343" d="m96.75284 141.88559l0 0c0 -7.6190796 6.176483 -13.795563 13.795555 -13.795563l67.24354 0c3.6588135 0 7.1677704 1.4534607 9.754929 4.040634c2.5871735 2.5871582 4.040634 6.096115 4.040634 9.754929l0 55.180542c0 7.6190796 -6.176483 13.7955475 -13.795563 13.7955475l-67.24354 0c-7.619072 0 -13.795555 -6.176468 -13.795555 -13.7955475z" fill-rule="evenodd"/><path stroke="#434343" stroke-width="4.0" stroke-linejoin="round" stroke-linecap="butt" d="m96.75284 141.88559l0 0c0 -7.6190796 6.176483 -13.795563 13.795555 -13.795563l67.24354 0c3.6588135 0 7.1677704 1.4534607 9.754929 4.040634c2.5871735 2.5871582 4.040634 6.096115 4.040634 9.754929l0 55.180542c0 7.6190796 -6.176483 13.7955475 -13.795563 13.7955475l-67.24354 0c-7.619072 0 -13.795555 -6.176468 -13.795555 -13.7955475z" fill-rule="evenodd"/></g></svg>