<?xml version="1.0" encoding="UTF-8" standalone="no"?>
<svg
   xmlns:dc="http://purl.org/dc/elements/1.1/"
   xmlns:cc="http://creativecommons.org/ns#"
   xmlns:rdf="http://www.w3.org/1999/02/22-rdf-syntax-ns#"
   xmlns:svg="http://www.w3.org/2000/svg"
   xmlns="http://www.w3.org/2000/svg"
   xmlns:sodipodi="http://sodipodi.sourceforge.net/DTD/sodipodi-0.dtd"
   xmlns:inkscape="http://www.inkscape.org/namespaces/inkscape"
   version="1.1"
   viewBox="0 0 213.85828 214.04318"
   stroke-miterlimit="10"
   id="svg53"
   sodipodi:docname="Ludolf - small.svg"
   width="213.85828"
   height="214.04318"
   style="fill:none;stroke:none;stroke-linecap:square;stroke-miterlimit:10"
   inkscape:version="0.92.3 (2405546, 2018-03-11)">
  <metadata
     id="metadata59">
    <rdf:RDF>
      <cc:Work
         rdf:about="">
        <dc:format>image/svg+xml</dc:format>
        <dc:type
           rdf:resource="http://purl.org/dc/dcmitype/StillImage" />
      </cc:Work>
    </rdf:RDF>
  </metadata>
  <defs
     id="defs57" />
  <sodipodi:namedview
     pagecolor="#ffffff"
     bordercolor="#666666"
     borderopacity="1"
     objecttolerance="10"
     gridtolerance="10"
     guidetolerance="10"
     inkscape:pageopacity="0"
     inkscape:pageshadow="2"
     inkscape:window-width="1920"
     inkscape:window-height="1018"
     id="namedview55"
     showgrid="false"
     inkscape:zoom="1.0397197"
     inkscape:cx="107.23228"
     inkscape:cy="106.56298"
     inkscape:window-x="-8"
     inkscape:window-y="-8"
     inkscape:window-maximized="1"
     inkscape:current-layer="svg53" />
  <clipPath
     id="p.0">
    <path
       d="M 0,0 H 226.52231 V 226.98425 H 0 Z"
       id="path2"
       inkscape:connector-curvature="0"
       style="clip-rule:nonzero" />
  </clipPath>
  <g
     clip-path="url(#p.0)"
     id="g51"
     transform="translate(-6.028872,-6.011934)">
    <path
       d="M 0,0 H 226.52231 V 226.98425 H 0 Z"
       id="path5"
       inkscape:connector-curvature="0"
       style="fill:#000000;fill-opacity:0;fill-rule:evenodd" />
    <path
       d="m 10.028872,135.30328 v -64.645676 0 c 0,-35.702816 45.97013,-64.64567 102.677168,-64.64567 56.70703,0 102.67717,28.942852 102.67717,64.64567 v 64.645676 z"
       id="path7"
       inkscape:connector-curvature="0"
       style="fill:#39a2c6;fill-rule:evenodd" />
    <path
       d="m 138.5119,127.54999 h 49.6693 v 74.4567 h -49.6693 z"
       id="path9"
       inkscape:connector-curvature="0"
       style="fill:#434343;fill-rule:evenodd" />
    <path
       d="m 35.07884,127.54999 h 49.669292 v 74.4567 H 35.07884 Z"
       id="path11"
       inkscape:connector-curvature="0"
       style="fill:#434343;fill-rule:evenodd" />
    <path
       d="M 10.028969,64.992935 H 215.88725 V 139.44963 H 10.028969 Z"
       id="path13"
       inkscape:connector-curvature="0"
       style="fill:#434343;fill-rule:evenodd" />
    <path
       d="M 10.028872,82.303276 H 215.88715 V 127.56312 H 10.028872 Z"
       id="path15"
       inkscape:connector-curvature="0"
       style="fill:#39a2c6;fill-rule:evenodd" />
    <path
       d="M 10.028872,82.303276 H 215.88715 V 127.56312 H 10.028872 Z"
       id="path17"
       inkscape:connector-curvature="0"
       style="fill-rule:evenodd;stroke:#39a2c6;stroke-width:8;stroke-linecap:butt;stroke-linejoin:round" />
    <path
       d="m 10.028872,103.05156 v 0 c 0,-6.853684 5.55601,-12.409699 12.409697,-12.409699 H 203.47745 c 3.29124,0 6.44771,1.30745 8.77498,3.63472 2.32727,2.327271 3.63472,5.483719 3.63472,8.774979 v 49.6373 c 0,6.85368 -5.55602,12.4097 -12.4097,12.4097 H 22.438569 c -6.853686,0 -12.409697,-5.55602 -12.409697,-12.4097 z"
       id="path19"
       inkscape:connector-curvature="0"
       style="fill:#39a2c6;fill-rule:evenodd" />
    <path
       d="m 10.028872,103.05156 v 0 c 0,-6.853684 5.55601,-12.409699 12.409697,-12.409699 H 203.47745 c 3.29124,0 6.44771,1.30745 8.77498,3.63472 2.32727,2.327271 3.63472,5.483719 3.63472,8.774979 v 49.6373 c 0,6.85368 -5.55602,12.4097 -12.4097,12.4097 H 22.438569 c -6.853686,0 -12.409697,-5.55602 -12.409697,-12.4097 z"
       id="path21"
       inkscape:connector-curvature="0"
       style="fill-rule:evenodd;stroke:#39a2c6;stroke-width:8;stroke-linecap:butt;stroke-linejoin:round" />
    <path
       d="m 127.777,47.13194 v 0 c 0,-13.715797 11.11884,-24.834646 24.83465,-24.834646 v 0 c 6.58655,0 12.90335,2.616501 17.56074,7.273899 4.6574,4.6574 7.2739,10.974188 7.2739,17.560747 v 0 c 0,13.715797 -11.11885,24.834644 -24.83464,24.834644 v 0 c -13.71581,0 -24.83465,-11.118847 -24.83465,-24.834644 z"
       id="path23"
       inkscape:connector-curvature="0"
       style="fill:#ffffff;fill-rule:evenodd" />
    <path
       d="m 136.60684,47.12714 v 0 c 0,-8.836556 7.16345,-16 16,-16 v 0 c 4.24347,0 8.31313,1.685707 11.3137,4.686291 3.0006,3.000583 4.6863,7.070244 4.6863,11.313709 v 0 c 0,8.836555 -7.16344,16 -16,16 v 0 c -8.83655,0 -16,-7.163445 -16,-16 z"
       id="path25"
       inkscape:connector-curvature="0"
       style="fill:#6d9eeb;fill-rule:evenodd" />
    <path
       d="m 142.4247,47.118217 v 0 c 0,-5.618519 4.5547,-10.173229 10.17323,-10.173229 v 0 c 2.69811,0 5.28571,1.071819 7.19356,2.979672 1.90784,1.907848 2.97966,4.495449 2.97966,7.193557 v 0 c 0,5.618519 -4.5547,10.173229 -10.17322,10.173229 v 0 c -5.61853,0 -10.17323,-4.55471 -10.17323,-10.173229 z"
       id="path27"
       inkscape:connector-curvature="0"
       style="fill:#434343;fill-rule:evenodd" />
    <path
       d="m 22.685137,220.05511 v -19.65353 0 c 0,-10.85436 16.6677,-19.65355 37.228348,-19.65355 20.560646,0 37.228348,8.79919 37.228348,19.65355 v 19.65353 z"
       id="path29"
       inkscape:connector-curvature="0"
       style="fill:#39a2c6;fill-rule:evenodd" />
    <path
       d="m 126.11821,220.05511 v -19.65353 0 c 0,-10.85436 16.66769,-19.65355 37.22835,-19.65355 20.56064,0 37.22835,8.79919 37.22835,19.65355 v 19.65353 z"
       id="path31"
       inkscape:connector-curvature="0"
       style="fill:#39a2c6;fill-rule:evenodd" />
    <path
       d="m 24.01322,112.27303 v 0 c 0,-4.39808 3.565342,-7.96342 7.963415,-7.96342 H 193.93957 c 2.11203,0 4.13755,0.839 5.63099,2.33243 1.49342,1.49343 2.33242,3.51896 2.33242,5.63099 v 31.85269 c 0,4.39808 -3.56533,7.96342 -7.96341,7.96342 H 31.976635 c -4.398073,0 -7.963415,-3.56534 -7.963415,-7.96342 z"
       id="path33"
       inkscape:connector-curvature="0"
       style="fill:#434343;fill-rule:evenodd" />
    <path
       d="m 24.01322,112.27303 v 0 c 0,-4.39808 3.565342,-7.96342 7.963415,-7.96342 H 193.93957 c 2.11203,0 4.13755,0.839 5.63099,2.33243 1.49342,1.49343 2.33242,3.51896 2.33242,5.63099 v 31.85269 c 0,4.39808 -3.56533,7.96342 -7.96341,7.96342 H 31.976635 c -4.398073,0 -7.963415,-3.56534 -7.963415,-7.96342 z"
       id="path35"
       inkscape:connector-curvature="0"
       style="fill-rule:evenodd;stroke:#434343;stroke-width:4;stroke-linecap:butt;stroke-linejoin:round" />
    <path
       d="m 47.28881,47.13194 v 0 c 0,-13.715797 11.118851,-24.834646 24.834648,-24.834646 v 0 c 6.586556,0 12.903343,2.616501 17.560745,7.273899 4.657402,4.6574 7.273895,10.974188 7.273895,17.560747 v 0 c 0,13.715797 -11.118843,24.834644 -24.83464,24.834644 v 0 c -13.715797,0 -24.834648,-11.118847 -24.834648,-24.834644 z"
       id="path37"
       inkscape:connector-curvature="0"
       style="fill:#ffffff;fill-rule:evenodd" />
    <path
       d="m 56.118656,47.12714 v 0 c 0,-8.836556 7.163444,-16 16.000004,-16 v 0 c 4.243462,0 8.313126,1.685707 11.313705,4.686291 3.00058,3.000583 4.686295,7.070244 4.686295,11.313709 v 0 c 0,8.836555 -7.163445,16 -16,16 v 0 c -8.836559,0 -16.000004,-7.163445 -16.000004,-16 z"
       id="path39"
       inkscape:connector-curvature="0"
       style="fill:#6d9eeb;fill-rule:evenodd" />
    <path
       d="m 61.93651,47.118217 v 0 c 0,-5.618519 4.55471,-10.173229 10.173225,-10.173229 v 0 c 2.698112,0 5.285713,1.071819 7.193558,2.979672 1.907852,1.907848 2.979675,4.495449 2.979675,7.193557 v 0 c 0,5.618519 -4.55471,10.173229 -10.173233,10.173229 v 0 c -5.618515,0 -10.173225,-4.55471 -10.173225,-10.173229 z"
       id="path41"
       inkscape:connector-curvature="0"
       style="fill:#434343;fill-rule:evenodd" />
    <path
       d="m 73.81042,39.801823 v 0 c 0,-3.418079 2.770904,-6.188976 6.18898,-6.188976 v 0 c 1.641418,0 3.215607,0.65205 4.376266,1.812709 1.16066,1.160657 1.812706,2.734848 1.812706,4.376267 v 0 c 0,3.418076 -2.770897,6.188976 -6.188972,6.188976 v 0 c -3.418076,0 -6.18898,-2.7709 -6.18898,-6.188976 z"
       id="path43"
       inkscape:connector-curvature="0"
       style="fill:#ffffff;fill-rule:evenodd" />
    <path
       d="m 154.73312,39.801823 v 0 c 0,-3.418079 2.7709,-6.188976 6.18898,-6.188976 v 0 c 1.64142,0 3.21561,0.65205 4.37627,1.812709 1.16066,1.160657 1.81269,2.734848 1.81269,4.376267 v 0 c 0,3.418076 -2.77088,6.188976 -6.18896,6.188976 v 0 c -3.41808,0 -6.18898,-2.7709 -6.18898,-6.188976 z"
       id="path45"
       inkscape:connector-curvature="0"
       style="fill:#ffffff;fill-rule:evenodd" />
    <path
       d="m 74.555214,89.45774 c 6.342957,0.521866 25.372269,3.131233 38.057746,3.131233 12.68547,0 31.7126,-2.609367 38.05512,-3.131233"
       id="path47"
       inkscape:connector-curvature="0"
       style="fill:#000000;fill-opacity:0;fill-rule:evenodd" />
    <path
       d="m 74.555214,89.45774 c 6.342957,0.521866 25.372269,3.131233 38.057746,3.131233 12.68547,0 31.7126,-2.609367 38.05512,-3.131233"
       id="path49"
       inkscape:connector-curvature="0"
       style="fill-rule:evenodd;stroke:#434343;stroke-width:4;stroke-linecap:butt;stroke-linejoin:round" />
  </g>
</svg>
